<svg width="138" height="143" viewBox="0 0 138 143" fill="none" xmlns="http://www.w3.org/2000/svg">
<path d="M62.8848 17.1387C65.5539 12.348 72.4461 12.348 75.1152 17.1387L117.852 93.8428C120.451 98.5086 117.078 104.25 111.736 104.25H26.2637C20.9225 104.25 17.5488 98.5086 20.1484 93.8428L62.8848 17.1387Z" fill="#F93C3C" stroke="black" stroke-width="6"/>
<path d="M68.744 75.456C67.848 75.456 67.0587 75.3493 66.376 75.136C66.1627 72.4053 65.9493 69.7387 65.736 67.136C65.5653 64.4907 65.3733 62.08 65.16 59.904C64.9893 57.6853 64.8613 55.7867 64.776 54.208C64.6907 52.5867 64.648 51.392 64.648 50.624C64.648 49.1307 64.9467 48 65.544 47.232C66.184 46.464 67.2507 46.08 68.744 46.08C70.2373 46.08 71.2827 46.464 71.88 47.232C72.52 48 72.84 49.1307 72.84 50.624C72.84 51.392 72.7973 52.5867 72.712 54.208C72.6267 55.7867 72.4773 57.6853 72.264 59.904C72.0933 62.08 71.9013 64.4907 71.688 67.136C71.5173 69.7387 71.3253 72.4053 71.112 75.136C70.472 75.3493 69.6827 75.456 68.744 75.456ZM68.808 88.768C67.4 88.768 66.312 88.3627 65.544 87.552C64.8187 86.7413 64.456 85.696 64.456 84.416C64.456 83.1787 64.904 82.1547 65.8 81.344C66.696 80.4907 67.6987 80.064 68.808 80.064C70.2587 80.064 71.368 80.4693 72.136 81.28C72.904 82.048 73.288 83.0933 73.288 84.416C73.288 85.6533 72.84 86.6987 71.944 87.552C71.048 88.3627 70.0027 88.768 68.808 88.768Z" fill="white"/>
</svg>
